<?xml version="1.0" standalone="no"?>
<!DOCTYPE svg PUBLIC "-//W3C//DTD SVG 20010904//EN"
 "http://www.w3.org/TR/2001/REC-SVG-20010904/DTD/svg10.dtd">
<svg version="1.0" xmlns="http://www.w3.org/2000/svg"
 width="1801.000000pt" height="601.000000pt" viewBox="0 0 1801.000000 601.000000"
 preserveAspectRatio="xMidYMid meet">

<g transform="translate(0.000000,601.000000) scale(0.100000,-0.100000)"
fill="#000000" stroke="none">
<path d="M1614 4341 c-127 -23 -216 -52 -290 -97 -97 -58 -100 -73 -7 -27 118
57 263 105 330 108 l54 4 -84 -42 c-46 -24 -120 -71 -166 -106 -50 -38 -78
-54 -71 -41 14 26 86 100 120 123 24 16 23 17 -15 2 -100 -40 -251 -143 -364
-251 -50 -47 -91 -84 -91 -81 0 19 54 100 105 156 44 48 52 61 30 47 -128 -80
-298 -241 -389 -369 -153 -215 -255 -495 -268 -737 -3 -54 -3 -55 37 -76 22
-12 52 -24 67 -28 28 -6 28 -6 28 48 0 193 97 510 216 709 40 66 145 210 149
205 2 -2 -4 -35 -13 -74 -12 -56 -13 -91 -6 -155 l9 -84 36 75 c47 99 116 208
188 300 67 84 139 157 125 125 -5 -11 -9 -74 -9 -140 0 -118 -1 -122 -42 -226
-40 -100 -99 -311 -124 -443 -6 -32 -15 -54 -19 -50 -19 21 -101 195 -125 269
-15 44 -28 81 -30 83 -7 7 -65 -163 -89 -259 -50 -204 -72 -439 -42 -439 24 0
76 -72 92 -129 10 -34 14 -70 10 -98 -5 -41 -4 -43 20 -43 81 0 163 -107 164
-213 0 -40 -5 -53 -29 -78 -32 -31 -46 -34 -85 -19 l-25 9 26 -72 c14 -40 41
-102 59 -139 37 -74 29 -71 188 -84 75 -6 79 -6 71 12 -34 83 2 134 92 134 80
-1 173 -70 173 -130 0 -27 1 -27 44 -23 58 7 109 -11 142 -50 l26 -31 -2 259
c-2 143 -2 264 -1 268 0 5 70 -57 154 -136 125 -120 153 -143 159 -128 9 26
26 246 34 449 l7 173 35 -33 c82 -78 262 -283 262 -299 0 -16 -18 -98 -56
-259 -23 -94 -84 -280 -92 -280 -4 0 -17 15 -28 33 -12 19 -52 68 -90 111 -74
85 -77 85 -89 -2 -24 -179 -95 -371 -158 -428 l-41 -37 55 6 c117 14 223 94
312 235 21 34 41 62 42 62 2 0 11 -22 20 -50 31 -94 6 -127 -145 -192 -85 -36
-63 -35 54 2 203 65 366 160 529 310 196 179 346 448 402 718 17 82 39 301 31
309 -2 3 -16 -3 -30 -14 -22 -15 -25 -26 -26 -73 0 -69 -17 -219 -31 -285 -57
-266 -208 -528 -394 -686 -59 -51 -75 -57 -56 -21 19 36 12 33 -71 -35 -91
-73 -189 -138 -258 -172 -43 -21 -41 -19 42 61 108 103 171 187 229 305 24 51
47 92 51 93 13 0 30 -104 26 -158 l-5 -56 34 39 c162 187 267 478 280 771 l6
142 -53 -14 c-30 -8 -76 -17 -104 -20 l-51 -7 27 27 c39 40 54 118 35 190
l-14 55 25 3 c43 5 65 47 63 119 -1 75 -27 135 -77 179 -37 32 -54 36 -83 20
-16 -8 -21 -3 -36 38 -10 26 -44 98 -76 160 -35 70 -53 114 -46 116 7 2 39 12
72 22 33 10 65 20 71 22 6 1 24 -19 41 -46 30 -49 92 -90 114 -76 30 18 -24
144 -100 234 l-29 35 -24 -22 c-31 -29 -98 -52 -251 -87 l-27 -6 40 -73 c134
-237 211 -483 241 -766 27 -262 -11 -605 -88 -789 l-15 -35 -35 64 c-19 35
-62 98 -94 140 l-58 77 6 181 c3 100 9 181 13 181 23 0 217 21 227 25 7 2 -1
17 -21 37 -38 38 -56 90 -56 162 0 47 -1 48 -27 43 -81 -15 -163 84 -163 199
0 81 38 134 97 134 18 0 33 2 33 4 0 15 -58 174 -86 235 -24 51 -38 72 -48 68
-8 -3 -58 -9 -111 -13 -83 -6 -95 -9 -89 -23 4 -9 9 -39 12 -68 4 -48 2 -55
-26 -83 -61 -60 -169 -32 -212 56 -11 22 -20 50 -20 61 0 18 -5 20 -43 16 -54
-6 -100 16 -127 60 -38 62 -32 67 83 69 106 1 117 2 284 12 109 7 265 25 272
31 10 10 -121 174 -199 249 -96 92 -163 133 -327 200 -129 53 -177 57 -349 27z
m165 -38 c-86 -97 -171 -326 -230 -618 -17 -82 -32 -151 -34 -153 -13 -13
-165 262 -165 297 0 50 171 301 263 388 64 59 174 132 200 133 5 0 -10 -21
-34 -47z m171 -39 c0 -23 50 -72 95 -93 53 -25 78 -26 95 -6 10 12 18 9 57
-23 52 -43 173 -182 173 -198 0 -13 -173 -30 -190 -19 -5 3 -10 14 -10 23 0
28 -38 81 -72 102 -73 44 -123 11 -116 -75 3 -44 2 -46 -20 -40 -44 11 -89
-12 -112 -58 l-22 -42 6 190 c3 105 6 220 6 257 l0 68 55 -37 c30 -21 55 -43
55 -49z m-219 -996 l99 -106 0 -176 0 -176 -186 0 -186 0 6 88 c3 48 8 137 11
197 6 107 30 346 41 393 4 21 10 16 60 -45 31 -37 100 -116 155 -175z m-463
-223 c25 -33 76 -94 114 -137 37 -42 68 -80 68 -84 0 -8 -283 4 -306 13 -9 3
-14 20 -14 47 0 51 18 253 26 285 5 22 7 21 36 -20 17 -24 52 -71 76 -104z"/>
<path d="M2076 4311 c109 -36 190 -83 178 -102 -3 -5 -11 -7 -17 -3 -7 3 4 -7
23 -22 45 -36 176 -160 208 -197 26 -29 39 -30 135 -6 l38 10 -56 45 c-63 52
-79 76 -63 92 17 17 33 15 81 -8 l42 -21 -30 26 c-43 37 -256 140 -351 170
-83 26 -230 55 -274 54 -14 0 25 -17 86 -38z"/>
<path d="M10157 4314 c-2 -2 -85 -4 -186 -4 l-182 -1 3 -32 c3 -30 6 -32 42
-34 39 -1 63 -16 66 -43 7 -47 -2 -617 -9 -628 -4 -7 -30 -16 -57 -20 -44 -7
-49 -10 -49 -32 l0 -25 193 -3 192 -2 0 29 c0 27 -3 29 -51 33 -27 3 -55 10
-61 16 -14 14 -23 146 -14 206 l7 46 65 0 64 0 145 -141 c180 -173 211 -190
362 -197 l103 -5 0 32 c0 28 -3 31 -32 31 -72 0 -153 53 -295 193 l-134 132
44 31 c51 36 97 118 97 173 0 130 -90 213 -259 240 -28 4 -52 7 -54 5z m77
-87 c54 -29 76 -75 77 -159 2 -128 -63 -187 -208 -188 l-63 0 0 183 c0 101 3
187 8 191 14 15 144 -3 186 -27z"/>
<path d="M11189 4306 c-86 -30 -139 -101 -139 -185 0 -85 59 -155 220 -261
116 -76 156 -113 171 -157 38 -116 -122 -201 -245 -129 -46 27 -79 70 -91 119
-6 22 -13 27 -36 27 -16 0 -29 -3 -29 -7 0 -5 7 -53 15 -108 8 -55 15 -103 15
-107 0 -11 44 -10 56 2 6 6 27 4 59 -6 76 -24 179 -22 243 6 70 30 127 95 141
161 25 113 -32 196 -214 314 -134 87 -175 130 -175 184 0 51 36 88 96 97 60 9
141 -30 178 -86 14 -22 26 -44 26 -50 0 -5 14 -10 31 -10 27 0 30 3 26 23 -3
12 -9 54 -13 92 -3 39 -11 73 -17 76 -5 4 -22 3 -36 -2 -19 -7 -40 -5 -70 6
-53 18 -163 19 -212 1z"/>
<path d="M12887 4289 c-3 -19 -9 -71 -13 -116 l-7 -83 32 0 c27 0 31 3 31 28
0 15 8 43 18 62 l17 35 101 5 c56 3 109 4 118 2 14 -3 16 -37 16 -318 0 -301
-1 -315 -20 -334 -15 -15 -33 -20 -75 -20 -54 0 -55 0 -55 -30 l0 -30 215 0
215 0 0 30 c0 29 -1 30 -49 30 -32 0 -56 6 -70 18 -21 17 -21 21 -19 337 l3
320 96 2 c124 2 140 -6 158 -79 13 -50 18 -57 44 -61 l29 -4 -6 46 c-3 25 -8
79 -12 119 -6 70 -7 72 -34 72 -14 0 -29 -3 -32 -6 -8 -7 -590 -5 -649 2 -46
6 -46 6 -52 -27z"/>
<path d="M15951 4304 c-213 -57 -343 -235 -329 -450 15 -234 251 -406 516
-375 131 16 216 56 295 140 83 89 124 207 115 333 -13 170 -153 318 -336 357
-72 15 -195 13 -261 -5z m210 -64 c135 -41 217 -155 234 -325 8 -72 -14 -180
-50 -241 -55 -94 -149 -141 -261 -131 -158 15 -277 135 -305 309 -28 170 57
342 191 388 71 25 113 25 191 0z"/>
<path d="M3877 4303 c-4 -3 -7 -16 -7 -29 0 -18 7 -23 45 -28 29 -5 49 -14 55
-26 6 -11 10 -109 10 -234 0 -118 5 -238 11 -266 22 -102 110 -192 222 -225
68 -20 228 -21 294 0 105 32 197 120 223 214 5 21 11 140 12 264 3 212 4 228
23 247 11 11 36 21 55 23 31 2 35 6 35 30 l0 27 -145 1 c-189 2 -180 3 -180
-25 0 -26 16 -36 60 -36 55 0 60 -21 60 -255 0 -121 -5 -227 -11 -250 -16 -60
-55 -104 -116 -132 -44 -20 -68 -25 -141 -24 -115 1 -181 32 -227 105 l-30 49
-3 236 c-3 266 -3 270 63 274 35 2 40 5 43 28 2 20 -2 28 -20 33 -31 8 -323 8
-331 -1z"/>
<path d="M5340 4300 c-104 -5 -105 -5 -105 -30 0 -14 6 -26 15 -27 8 -1 32 -4
53 -8 l37 -6 0 -324 c0 -323 0 -324 -22 -339 -12 -9 -37 -16 -55 -16 -30 0
-33 -3 -33 -30 l0 -30 165 0 165 0 0 29 c0 27 -3 29 -52 33 -34 4 -56 12 -65
24 -10 14 -13 78 -13 288 l1 271 50 -54 c28 -30 168 -177 311 -328 223 -233
265 -273 289 -273 l29 0 2 378 3 377 53 9 c47 9 52 12 52 35 l0 26 -157 -2
c-123 -2 -160 -5 -167 -16 -14 -22 1 -50 24 -44 11 3 36 1 55 -4 30 -9 35 -14
40 -52 3 -23 5 -138 3 -255 l-3 -213 -275 290 c-151 159 -279 291 -285 292 -5
2 -57 2 -115 -1z"/>
<path d="M6628 4302 c-11 -2 -18 -13 -18 -28 0 -18 7 -25 28 -29 60 -13 57 6
60 -341 2 -315 2 -319 -19 -336 -12 -10 -32 -18 -45 -18 -20 0 -24 -5 -24 -30
l0 -30 170 0 170 0 0 30 c0 27 -3 30 -33 30 -18 0 -42 6 -53 14 -18 14 -19 29
-19 335 0 216 4 324 11 331 6 6 28 12 50 13 35 2 39 5 39 29 l0 28 -150 3
c-82 1 -158 1 -167 -1z"/>
<path d="M7539 4302 l-185 -2 4 -30 c4 -26 9 -30 36 -30 57 0 44 23 216 -405
72 -181 136 -338 142 -348 7 -14 19 -17 50 -15 37 3 42 7 54 38 74 208 268
688 285 706 15 16 34 24 56 24 33 0 34 2 31 33 -2 17 -6 31 -10 30 -5 -2 -76
-3 -159 -3 l-150 0 3 -27 c3 -25 7 -28 41 -30 53 -2 67 -9 67 -35 0 -33 -192
-530 -201 -521 -4 4 -54 122 -110 262 -77 193 -100 258 -92 270 6 10 27 17 57
19 48 3 61 14 54 49 -3 17 -16 18 -189 15z"/>
<path d="M8632 4278 c3 -31 5 -33 45 -34 76 -2 73 11 73 -338 0 -248 -3 -316
-14 -331 -10 -13 -30 -20 -75 -23 -60 -4 -61 -5 -61 -33 l0 -29 349 0 348 0 7
68 c4 37 9 88 12 113 6 46 6 46 -21 44 -32 -4 -27 1 -49 -56 -29 -79 -39 -84
-193 -87 -94 -3 -138 0 -149 8 -11 10 -14 42 -14 152 l0 139 123 -3 122 -3 11
-45 c9 -38 15 -45 37 -48 l27 -3 0 135 0 136 -30 0 c-25 0 -30 -4 -30 -23 0
-12 -7 -33 -16 -45 -14 -21 -23 -22 -130 -22 l-114 0 0 135 0 135 118 2 c64 0
126 0 137 -1 28 -2 54 -37 61 -82 5 -31 12 -41 31 -45 13 -4 27 -4 30 -1 3 4
2 54 -2 112 l-7 105 -315 0 -314 0 3 -32z"/>
<path d="M12060 4278 c0 -22 6 -29 28 -33 60 -13 57 6 60 -341 2 -315 2 -319
-19 -336 -12 -10 -32 -18 -45 -18 -20 0 -24 -5 -24 -30 l0 -30 170 0 170 0 0
29 c0 26 -4 29 -42 34 -23 3 -48 14 -55 23 -10 14 -13 87 -13 305 0 157 3 301
6 318 7 31 28 44 79 45 15 1 20 8 20 29 l0 29 -167 1 -168 2 0 -27z"/>
<path d="M14227 4302 l-178 -2 3 -27 c2 -21 9 -26 36 -29 40 -5 81 -27 103
-57 8 -12 68 -104 132 -205 l117 -182 0 -110 c0 -101 -2 -110 -22 -124 -12 -9
-39 -16 -60 -16 -36 0 -38 -2 -38 -30 l0 -30 190 0 190 0 0 29 c0 26 -3 29
-47 34 -66 7 -73 21 -73 146 l0 106 110 185 c108 183 161 249 200 251 11 1 25
3 30 4 6 1 15 3 20 4 13 1 13 48 0 53 -5 2 -77 2 -160 0 l-150 -3 0 -30 c0
-27 2 -29 40 -29 30 0 40 -4 40 -16 0 -9 -40 -83 -89 -166 l-89 -150 -37 59
c-21 32 -64 99 -96 148 -31 50 -59 97 -61 105 -2 10 8 16 37 20 33 4 41 9 43
29 2 13 0 26 -5 30 -4 3 -88 5 -186 3z"/>
<path d="M16820 4273 c0 -29 3 -32 30 -31 61 2 60 7 60 -343 0 -349 0 -349
-61 -349 -26 0 -29 -3 -29 -30 l0 -30 170 0 170 0 0 29 c0 26 -4 29 -41 34
-23 3 -47 10 -53 17 -7 7 -12 68 -14 165 l-3 155 113 -1 c151 -1 161 -5 172
-57 8 -34 14 -42 32 -42 29 0 31 8 33 133 2 107 2 107 -24 117 -34 13 -32 14
-38 -17 -4 -16 -10 -34 -15 -41 -12 -18 -104 -26 -196 -17 l-77 7 3 125 3 125
135 -1 c79 -1 140 -6 147 -13 7 -6 16 -28 19 -50 6 -35 9 -39 33 -36 20 2 26
8 25 26 0 12 -1 52 -2 90 l-2 67 -295 0 -295 0 0 -32z"/>
<path d="M6730 3276 c0 -3 5 -15 10 -28 9 -19 -28 -129 -235 -693 -135 -368
-258 -692 -273 -719 -46 -85 -93 -105 -239 -106 -95 0 -125 9 -149 45 -24 37
-31 84 -48 341 -9 126 -18 258 -21 294 -36 473 -49 703 -42 731 8 30 37 44
110 54 42 6 48 9 45 28 -3 22 -7 22 -184 25 l-180 2 -72 -147 c-39 -82 -99
-206 -133 -278 -34 -71 -84 -177 -111 -235 -28 -58 -67 -141 -88 -185 -138
-291 -201 -417 -206 -412 -3 3 -43 83 -88 179 -46 95 -114 236 -150 313 -37
77 -95 198 -129 270 -34 71 -100 210 -147 308 l-86 178 -182 0 c-100 0 -186
-1 -192 -1 -5 0 -10 -9 -10 -19 0 -16 11 -22 55 -31 39 -8 61 -19 76 -38 21
-26 21 -33 15 -209 -4 -100 -9 -192 -11 -205 -2 -13 -6 -77 -9 -143 -4 -66 -9
-138 -11 -160 -2 -22 -7 -94 -10 -160 -11 -223 -25 -399 -35 -437 -20 -73 -73
-107 -167 -108 -28 0 -33 -4 -33 -25 l0 -25 265 0 265 0 0 24 c0 21 -6 25 -47
31 -67 10 -106 28 -133 61 -22 29 -22 32 -16 204 3 96 8 202 11 235 6 79 12
161 25 390 6 105 15 237 18 294 l7 105 121 -255 c258 -538 292 -611 405 -844
l115 -240 33 0 32 0 312 667 c171 367 312 667 313 665 1 -1 5 -51 8 -112 10
-159 25 -399 31 -480 12 -156 15 -195 22 -315 4 -69 8 -162 8 -208 0 -83 0
-84 -36 -117 -34 -31 -104 -55 -159 -55 -15 0 -20 -7 -20 -25 l0 -25 610 0
610 0 0 25 c0 23 -3 25 -50 25 -112 0 -189 36 -190 89 0 9 43 136 97 283 l98
268 261 0 261 0 97 -262 c53 -145 96 -277 96 -295 0 -59 -52 -83 -182 -83 -76
0 -78 0 -78 -25 l0 -25 704 0 703 0 -4 24 c-4 22 -11 24 -84 29 -88 6 -119 20
-149 70 -18 29 -20 52 -20 282 l0 250 150 -1 150 -1 47 -34 c26 -18 151 -134
278 -257 126 -124 258 -244 292 -269 120 -85 263 -123 469 -123 113 0 114 0
114 24 0 21 -6 24 -52 30 -79 10 -179 49 -266 102 -56 35 -138 108 -302 269
-124 121 -253 246 -288 276 l-63 55 74 37 c94 46 166 117 209 204 31 64 33 74
33 173 0 99 -2 110 -32 171 -100 203 -345 291 -773 275 -347 -12 -475 -18
-487 -22 -7 -2 -13 -15 -13 -29 0 -24 2 -25 73 -25 87 0 130 -22 155 -78 15
-33 17 -96 17 -647 0 -590 -1 -611 -20 -649 -36 -72 -59 -81 -198 -81 -136 0
-168 10 -207 66 -12 17 -145 355 -295 752 l-273 722 -111 3 c-61 1 -111 0
-111 -2z m1754 -82 c81 -21 133 -48 184 -98 78 -74 104 -151 103 -302 -2 -215
-102 -347 -297 -393 -50 -12 -309 -21 -316 -11 -1 3 -2 188 0 412 2 375 4 407
20 412 31 9 246 -5 306 -20z m-1561 -419 c52 -137 98 -258 102 -267 7 -17 -7
-18 -208 -18 l-216 0 23 63 c13 34 61 163 106 286 59 159 85 218 90 205 4 -10
50 -131 103 -269z"/>
<path d="M12913 3251 c9 -25 2 -52 -61 -222 -39 -107 -148 -403 -242 -659 -94
-256 -181 -488 -195 -515 -40 -83 -101 -125 -180 -125 -27 0 -34 -4 -37 -25
l-5 -25 293 0 294 0 0 25 c0 24 -3 25 -57 26 -95 1 -160 19 -178 50 -17 27 0
92 88 329 l95 255 262 0 262 0 95 -255 c94 -254 109 -314 84 -344 -20 -23 -77
-36 -163 -36 -76 0 -78 0 -78 -25 l0 -25 635 0 635 0 0 24 c0 21 -5 24 -69 29
-100 8 -138 27 -161 81 -19 43 -20 66 -18 622 l3 578 644 -675 c615 -644 646
-674 682 -677 l39 -3 0 734 0 734 23 21 c32 30 71 42 137 42 50 0 60 3 65 20
3 11 3 24 0 30 -7 11 -551 15 -579 4 -9 -3 -16 -17 -16 -30 0 -22 4 -24 51
-24 119 0 182 -40 194 -123 3 -23 5 -269 3 -546 l-3 -504 -590 617 -590 617
-195 -3 -195 -3 -3 -26 c-3 -25 0 -26 51 -32 30 -3 77 -15 106 -27 l51 -23 -2
-662 c-3 -647 -3 -663 -23 -685 -32 -35 -72 -51 -144 -57 -136 -11 -207 19
-250 106 -10 20 -137 352 -282 738 l-264 703 -112 0 -111 0 11 -29z m186 -482
c55 -146 101 -269 101 -272 0 -4 -95 -7 -211 -7 -168 0 -210 3 -207 13 15 63
204 554 209 544 4 -6 52 -132 108 -278z"/>
<path d="M16358 3266 c-3 -4 -383 -16 -480 -16 -54 0 -58 -2 -58 -24 0 -22 4
-23 77 -29 86 -6 118 -23 145 -78 17 -31 18 -83 18 -654 0 -571 -1 -623 -18
-654 -28 -56 -61 -73 -146 -79 -73 -4 -76 -6 -76 -29 l0 -24 498 4 c467 3 502
5 577 25 273 72 482 239 585 465 138 305 91 626 -125 843 -68 68 -97 89 -185
133 -127 62 -256 96 -422 111 -108 9 -381 13 -390 6z m447 -85 c252 -66 415
-226 487 -477 18 -65 22 -104 22 -224 0 -170 -12 -227 -81 -370 -39 -81 -59
-108 -132 -181 -153 -151 -278 -193 -583 -194 -164 0 -179 2 -205 21 -15 11
-31 32 -34 45 -4 13 -7 335 -8 716 l-1 692 68 3 c145 6 385 -9 467 -31z"/>
<path d="M9230 3230 c0 -11 0 -23 0 -27 0 -5 26 -11 59 -15 77 -9 128 -36 182
-96 24 -27 158 -225 297 -441 l252 -392 0 -199 c0 -160 -3 -208 -16 -240 -23
-57 -69 -82 -160 -88 -70 -4 -74 -6 -74 -28 l0 -24 345 0 345 0 0 24 c0 21 -5
24 -65 28 -77 7 -124 31 -147 78 -16 30 -18 66 -18 259 l0 223 137 232 c75
127 165 281 201 341 104 177 121 202 164 241 71 64 117 79 245 79 97 0 115 -3
140 -21 60 -44 58 -23 61 -695 3 -668 3 -673 -51 -713 -22 -16 -47 -22 -108
-25 -76 -3 -79 -4 -79 -27 l0 -24 563 0 562 0 93 179 c50 98 92 181 92 185 0
3 -10 6 -22 5 -17 0 -43 -27 -97 -101 -78 -106 -130 -152 -193 -169 -24 -6
-132 -9 -274 -7 -234 3 -236 3 -255 27 -18 22 -19 48 -19 660 0 586 1 639 18
671 25 51 52 60 175 60 106 0 107 0 107 23 l0 24 -372 6 c-205 4 -497 6 -648
4 l-275 -2 -3 -26 c-3 -26 -1 -27 58 -31 71 -5 104 -29 102 -76 -1 -36 -17
-68 -114 -232 -41 -69 -118 -201 -173 -293 -54 -92 -102 -164 -106 -160 -24
26 -430 660 -436 681 -13 51 32 82 120 82 58 0 58 0 55 28 l-3 27 -332 3
c-328 2 -333 2 -333 -18z"/>
<path d="M779 2838 c-18 -25 -23 -46 -24 -92 0 -34 3 -73 7 -87 7 -24 5 -25
-21 -21 -78 11 -78 -138 0 -252 24 -36 81 -72 98 -62 5 3 16 -16 26 -42 10
-26 39 -89 66 -141 l49 -93 -38 6 c-83 15 -99 25 -140 89 -46 70 -105 131
-122 125 -14 -4 41 -87 125 -186 57 -68 64 -73 135 -96 84 -27 160 -41 160
-31 0 4 -20 40 -45 80 -123 197 -189 428 -202 703 -6 129 -7 132 -29 132 -14
0 -31 -12 -45 -32z"/>
<path d="M1149 1901 c43 -55 136 -138 196 -176 64 -41 169 -83 226 -90 l44 -6
-55 26 c-30 15 -71 29 -90 32 -39 6 -137 72 -190 128 l-35 37 95 -7 c82 -6 97
-10 110 -28 45 -66 133 -105 190 -85 29 10 34 20 31 63 -2 18 3 20 41 17 48
-5 104 20 114 50 3 11 4 21 2 22 -1 2 -106 9 -233 15 -126 7 -282 19 -345 27
-63 7 -119 14 -123 14 -5 0 5 -18 22 -39z"/>
</g>
</svg>
